<svg width="70" height="70" viewBox="0 0 70 70" fill="none" xmlns="http://www.w3.org/2000/svg">
<path d="M69.9999 8C69.9999 3.58172 66.4182 0 61.9999 0H8C3.58172 0 0 3.58172 0 8V62C0 66.4183 3.58172 70 8 70H61.9999C66.4182 70 69.9999 66.4183 69.9999 62V8ZM42.3908 57.1375C41.2095 57.365 40.8333 56.6388 40.8333 56.0175V49.6154C40.8333 47.4367 40.0691 46.0192 39.2291 45.2958C44.4266 44.7183 49.8866 42.7437 49.8866 33.7837C49.8866 31.2346 48.9766 29.1521 47.4862 27.5217C47.7254 26.9325 48.5245 24.5583 47.2558 21.3471C47.2558 21.3471 45.2987 20.72 40.8449 23.7388C38.9783 23.2138 36.9833 22.96 34.9999 22.9483C33.0166 22.9571 31.0216 23.2138 29.1579 23.7329C24.7012 20.7142 22.7412 21.3412 22.7412 21.3412C21.4754 24.5554 22.2745 26.9267 22.5166 27.5187C21.0233 29.1521 20.1133 31.2317 20.1133 33.7808C20.1133 42.7175 25.5587 44.7212 30.7445 45.3133C30.0766 45.8967 29.4729 46.9233 29.2629 48.4342C27.9299 49.0292 24.5554 50.0587 22.4729 46.4917C22.4729 46.4917 21.2391 44.2517 18.8941 44.0854C18.8941 44.0854 16.6191 44.0562 18.7337 45.5058C18.7337 45.5058 20.2649 46.2233 21.3266 48.9183C21.3266 48.9183 22.677 53.0833 29.1666 51.6717V56.0146C29.1666 56.63 28.7904 57.3533 27.6266 57.1375C18.3516 54.0546 11.6666 45.3075 11.6666 35C11.6666 22.1112 22.1141 11.6667 34.9999 11.6667C47.8858 11.6667 58.3333 22.1112 58.3333 35C58.3333 45.3046 51.657 54.0488 42.3908 57.1375Z" fill="white"/>
</svg>
