<svg width="70" height="70" viewBox="0 0 70 70" fill="none" xmlns="http://www.w3.org/2000/svg">
<path d="M61.9902 0C66.408 0 69.9896 3.58098 69.9902 7.99878L69.9985 61.9988C69.9991 66.4175 66.4172 70 61.9985 70H8.00002C3.58173 70 1.01525e-05 66.4183 2.26763e-05 62L0.000175741 7.99998C0.000188265 3.58171 3.58191 0 8.00018 0H61.9902ZM21.9344 57.8612V27.0062H11.6765V57.8612H21.9344ZM58.9165 57.8612V40.1672C58.9165 30.6895 53.8562 26.2806 47.1084 26.2806C41.6673 26.2806 39.2299 29.273 37.8653 31.3748V27.0062H27.6101C27.7461 29.9016 27.6101 57.8612 27.6101 57.8612H37.8652V40.6296C37.8652 39.7072 37.9316 38.7853 38.2034 38.126C38.9434 36.284 40.6321 34.3759 43.4654 34.3759C47.1747 34.3759 48.6609 37.2064 48.6609 41.3525V57.8612L58.9165 57.8612ZM16.8748 12.1281C13.3652 12.1281 11.0722 14.4354 11.0722 17.4596C11.0722 20.4202 13.2955 22.7911 16.739 22.7911H16.8052C20.3819 22.7911 22.6083 20.4202 22.6083 17.4596C22.542 14.4397 20.3882 12.1347 16.8748 12.1281Z" fill="white"/>
</svg>
