<svg width="70" height="70" viewBox="0 0 70 70" fill="none" xmlns="http://www.w3.org/2000/svg">
<path d="M62 1.31395e-06C66.4183 5.88275e-07 70 3.58172 70 8V61.9999C70 66.4182 66.4183 69.9999 62 69.9999H8.00008C3.58181 69.9999 9.39564e-05 66.4182 8.77063e-05 61.9999L1.1317e-05 8.00002C5.06677e-06 3.58173 3.58173 1.09088e-05 8.00001 1.01831e-05L62 1.31395e-06ZM53.426 17.4594C48.7991 12.8273 42.6461 10.2752 36.0903 10.2724C22.5826 10.2724 11.589 21.2653 11.5836 34.7771C11.5818 39.0964 12.7103 43.3121 14.8549 47.0287L11.3782 59.7277L24.3694 56.3199C27.9488 58.2723 31.979 59.3014 36.0804 59.3026H36.0905C49.5968 59.3026 60.5914 48.3086 60.597 34.7968C60.5994 28.2486 58.0527 22.0915 53.426 17.4594ZM36.0905 55.164H36.0823C32.4272 55.1626 28.8424 54.1806 25.7152 52.3247L24.9713 51.8833L17.2622 53.9056L19.3198 46.3893L18.8356 45.6186C16.7967 42.3756 15.7197 38.6274 15.7213 34.7786C15.7258 23.5483 24.8633 14.4115 36.0987 14.4115C41.5391 14.4134 46.6532 16.5349 50.4991 20.385C54.3447 24.235 56.4613 29.3527 56.4592 34.7951C56.4546 46.0264 47.3174 55.1639 36.0905 55.164ZM47.2633 39.9088C46.6509 39.6023 43.6403 38.1212 43.0791 37.9167C42.5179 37.7123 42.1096 37.6103 41.7014 38.2231C41.2932 38.836 40.1197 40.2153 39.7625 40.6241C39.4054 41.0326 39.0481 41.084 38.4359 40.7772C37.8235 40.4709 35.8506 39.8243 33.5117 37.738C31.6914 36.1143 30.4623 34.1092 30.1052 33.4961C29.7481 32.8831 30.0671 32.5517 30.3736 32.2465C30.6492 31.9721 30.9861 31.5312 31.2922 31.1737C31.5985 30.8162 31.7005 30.5606 31.9046 30.1521C32.1087 29.7433 32.0067 29.386 31.8535 29.0794C31.7005 28.773 30.4757 25.7588 29.9655 24.5327C29.4685 23.3388 28.9638 23.5005 28.5878 23.4816C28.2311 23.4639 27.8224 23.46 27.4143 23.46C27.0061 23.46 26.3426 23.6133 25.7814 24.2262C25.2201 24.8392 23.6383 26.3207 23.6383 29.3345C23.6383 32.3486 25.8323 35.2602 26.1385 35.669C26.4447 36.0778 30.4563 42.2625 36.5989 44.9149C38.0598 45.5458 39.2004 45.9226 40.0898 46.2047C41.5565 46.6709 42.8914 46.6051 43.9465 46.4473C45.1229 46.2717 47.5694 44.9663 48.0796 43.5359C48.5899 42.1053 48.5899 40.8793 48.4367 40.6241C48.2837 40.3686 47.8755 40.2153 47.2633 39.9088Z" fill="white"/>
</svg>
